<svg width="60" height="60" viewBox="0 0 60 60" fill="none" xmlns="http://www.w3.org/2000/svg">
<path d="M59.1667 30C59.1667 37.7355 56.0938 45.1541 50.624 50.624C45.1541 56.0938 37.7355 59.1667 30 59.1667C22.2645 59.1667 14.8459 56.0938 9.37606 50.624C3.90625 45.1541 0.833344 37.7355 0.833344 30C0.833344 22.2645 3.90625 14.8459 9.37606 9.37606C14.8459 3.90625 22.2645 0.833344 30 0.833344C37.7355 0.833344 45.1541 3.90625 50.624 9.37606C56.0938 14.8459 59.1667 22.2645 59.1667 30ZM43.7317 30.5717C43.4607 30.3001 43.1389 30.0846 42.7845 29.9375C42.4302 29.7905 42.0503 29.7148 41.6667 29.7148C41.283 29.7148 40.9032 29.7905 40.5488 29.9375C40.1945 30.0846 39.8726 30.3001 39.6017 30.5717L32.9167 37.2567V15.4167C32.9167 14.6431 32.6094 13.9013 32.0624 13.3543C31.5154 12.8073 30.7736 12.5 30 12.5C29.2265 12.5 28.4846 12.8073 27.9376 13.3543C27.3906 13.9013 27.0833 14.6431 27.0833 15.4167V37.2567L20.3983 30.5717C20.1275 30.3005 19.806 30.0853 19.452 29.9384C19.0981 29.7915 18.7186 29.7157 18.3354 29.7155C17.9522 29.7152 17.5726 29.7904 17.2185 29.9368C16.8643 30.0832 16.5424 30.298 16.2713 30.5688C16.0001 30.8396 15.7849 31.1611 15.638 31.5151C15.4911 31.869 15.4153 32.2485 15.4151 32.6317C15.4148 33.0149 15.49 33.3945 15.6364 33.7486C15.7828 34.1028 15.9975 34.4247 16.2683 34.6958L27.935 46.3625C28.2059 46.6341 28.5278 46.8496 28.8821 46.9967C29.2365 47.1437 29.6164 47.2194 30 47.2194C30.3837 47.2194 30.7635 47.1437 31.1179 46.9967C31.4722 46.8496 31.7941 46.6341 32.065 46.3625L43.7317 34.6958C44.2785 34.1489 44.5856 33.4072 44.5856 32.6338C44.5856 31.8604 44.2785 31.1186 43.7317 30.5717Z" fill="#133E23"/>
</svg>
